#!OML:ASF I:\salsa\salsa 7_09\Patient 1\Session 1\dancerfemale.ASF
:FULLY-SPECIFIED
:DEGREES
1274
root 5.12208 15.5163 3.95083 -571.477 74.7133 -558.54
lowerback 14.1923 1.50813 3.23953
upperback -1.23295 2.30696 -3.57288
thorax -9.04647 0.875033 -6.21595
lowerneck 3.27453 -5.52086 -11.8912
upperneck 6.95121 -7.98225 9.55198
head 2.38486 -4.05727 4.68229
rclavicle -2.06239e-014 1.39149e-014
rhumerus -46.0749 6.98269 -79.0453
rradius 60.6264
rwrist -38.7935
rhand -2.38476 54.544
rfingers 7.12502
rthumb 23.3043 25.9345
lclavicle -2.06239e-014 1.39149e-014
lhumerus -24.6774 -13.2874 94.2083
lradius 115.128
lwrist -25.3668
lhand 2.10993 38.7933
lfingers 7.12502
lthumb 27.6097 426.788
rfemur -10.9823 -22.3737 10.6551
rtibia 65.8956
rfoot 9.19068 12.2223
rtoes -16.8471
lfemur -18.7247 8.91976 -35.0903
ltibia 42.8862
lfoot 2.31483 -6.41229
ltoes -11.4419
1275
root 5.15582 15.4971 3.91471 -574.27 74.1691 -561.777
lowerback 13.8707 1.07626 2.97544
upperback -1.3584 1.63303 -4.28429
thorax -9.0758 0.54615 -6.69814
lowerneck 3.21186 -5.05687 -11.7496
upperneck 6.79819 -7.3604 9.8297
head 2.28403 -3.7382 4.76766
rclavicle -3.37934e-015 -2.82274e-014
rhumerus -46.4955 6.37591 -77.0908
rradius 61.7362
rwrist -38.5392
rhand -2.18521 53.9865
rfingers 7.12502
rthumb 23.4957 25.4013
lclavicle -3.37934e-015 -2.82274e-014
lhumerus -24.9994 -14.409 94.9668
lradius 115.588
lwrist -25.7685
lhand 2.72863 38.58
lfingers 7.12502
lthumb 28.2012 426.478
rfemur -12.6861 -23.2383 9.15887
rtibia 68.2565
rfoot 10.6211 11.9059
rtoes -16.9732
lfemur -18.4357 9.57529 -36.3169
ltibia 42.0125
lfoot 2.05606 -7.01657
ltoes -10.7349
1276
root 5.17373 15.4905 3.88136 -576.646 73.8226 -564.576
lowerback 13.6716 0.701217 2.95318
upperback -1.50929 1.08102 -4.9806
thorax -9.19482 0.259806 -7.34362
lowerneck 3.07057 -4.63683 -11.5251
upperneck 6.72948 -6.79115 10.1187
head 2.22342 -3.44054 4.83688
rclavicle 6.69904e-014 -2.26615e-014
rhumerus -46.7772 5.51833 -75.1375
rradius 62.8928
rwrist -38.376
rhand -1.86275 53.3612
rfingers 7.12502
rthumb 23.805 24.816
lclavicle 6.69904e-014 -2.26615e-014
lhumerus -25.4318 -15.5855 95.7539
lradius 115.84
lwrist -26.2943
lhand 3.18892 38.1654
lfingers 7.12502
lthumb 28.6411 425.99
rfemur -14.3196 -23.6006 8.11524
rtibia 70.4451
rfoot 10.8106 11.1309
rtoes -17.9538
lfemur -18.1452 10.3318 -37.3051
ltibia 41.0537
lfoot 1.87275 -7.6772
ltoes -10.1604
1277
root 5.17774 15.4898 3.8482 -578.972 73.4462 -567.317
lowerback 13.2604 0.367148 2.77299
upperback -1.54048 0.571614 -5.54003
thorax -9.06836 0.0174366 -7.74287
lowerneck 3.0036 -4.2068 -11.2817
upperneck 6.45316 -6.19477 10.1618
head 2.07924 -3.13754 4.82897
rclavicle -3.27001e-014 3.57812e-015
rhumerus -46.7514 4.78989 -72.9872
rradius 64.1974
rwrist -38.2047
rhand -1.50133 52.6227
rfingers 7.12502
rthumb 24.1516 24.1231
lclavicle -3.27001e-014 3.57812e-015
lhumerus -25.8121 -16.6834 96.7229
lradius 115.882
lwrist -26.7487
lhand 3.72903 37.697
lfingers 7.12502
lthumb 29.157 425.434
rfemur -15.8261 -23.8337 7.09804
rtibia 72.516
rfoot 9.96038 10.1305
rtoes -20.4343
lfemur -17.8693 10.9993 -38.3181
ltibia 40.0381
lfoot 1.83016 -8.36437
ltoes -9.66061
1278
root 5.17494 15.4894 3.81235 -580.944 73.0318 -569.694
lowerback 13.0614 -0.0810163 3.01907
upperback -1.77766 -0.03861 -6.30062
thorax -9.32149 -0.322369 -8.6269
lowerneck 3.00844 -3.70771 -11.0474
upperneck 6.48329 -5.53109 10.4268
head 2.01268 -2.79511 4.89159
rclavicle 1.17283e-014 3.65764e-014
rhumerus -46.9702 4.10837 -71.2933
rradius 65.6066
rwrist -37.8759
rhand -1.18845 51.8973
rfingers 7.12502
rthumb 24.4516 23.4379
lclavicle 1.17283e-014 3.65764e-014
lhumerus -26.6451 -17.8412 97.2231
lradius 115.777
lwrist -26.8861
lhand 4.20097 37.4723
lfingers 7.12502
lthumb 29.6076 425.13
rfemur -17.0572 -24.4468 5.89806
rtibia 74.4514
rfoot 8.71088 8.82412
rtoes -24.5855
lfemur -17.5955 11.511 -39.2957
ltibia 39.014
lfoot 1.79871 -9.05388
ltoes -9.08928
1279
root 5.16198 15.496 3.77865 -581.708 72.7606 -570.87
lowerback 12.5688 -0.508911 3.41178
upperback -1.91087 -0.585532 -6.80288
thorax -9.29826 -0.624794 -9.31089
lowerneck 2.98299 -3.2324 -10.9794
upperneck 6.45755 -4.89611 10.6508
head 1.94109 -2.47212 4.96557
rclavicle 2.05742e-014 1.59028e-015
rhumerus -46.8789 3.533 -69.4712
rradius 67.0598
rwrist -37.6033
rhand -0.878204 51.0229
rfingers 7.12502
rthumb 24.7489 22.604
lclavicle 2.05742e-014 1.59028e-015
lhumerus -27.3839 -18.8891 97.8146
lradius 115.417
lwrist -26.9451
lhand 4.23253 37.5123
lfingers 7.12502
lthumb 29.6377 425.165
rfemur -17.9949 -25.1968 4.97139
rtibia 76.1459
rfoot 7.57057 6.58654
rtoes -28.5727
lfemur -17.427 11.9065 -39.8922
ltibia 38.0551
lfoot 1.84715 -9.77681
ltoes -8.2935
